<?xml version="1.0" encoding="UTF-8"?>
<svg version="1.1" xmlns="http://www.w3.org/2000/svg" width="50" height="50">
<path d="M0 0 C0.99 0.495 0.99 0.495 2 1 C2.35557331 3.25946584 2.44330506 5.4899777 2.55859375 7.7734375 C3.09289579 10.46858937 3.82440676 11.36064453 6 13 C9.10839021 13.7269226 9.10839021 13.7269226 12 14 C12 12.68 12 11.36 12 10 C9.36 10 6.72 10 4 10 C4 8.35 4 6.7 4 5 C4.66 5.33 5.32 5.66 6 6 C6 6.66 6 7.32 6 8 C11.28 8 16.56 8 22 8 C22.33 7.01 22.66 6.02 23 5 C23.33 5 23.66 5 24 5 C24 6.65 24 8.3 24 10 C21.36 10 18.72 10 16 10 C16 11.32 16 12.64 16 14 C17.31471568 13.71848913 18.62675767 13.42446661 19.9375 13.125 C21.03384766 12.88136719 21.03384766 12.88136719 22.15234375 12.6328125 C24.20700294 12.17038477 24.20700294 12.17038477 25 10 C25.26955833 7.66810655 25.44507377 5.33678493 25.62109375 2.99609375 C25.80865234 2.00802734 25.80865234 2.00802734 26 1 C26.66 0.67 27.32 0.34 28 0 C28.05384521 2.29141286 28.09272087 4.58318188 28.125 6.875 C28.14820312 8.15117188 28.17140625 9.42734375 28.1953125 10.7421875 C28 14 28 14 26 16 C23.6015625 16.25878906 23.6015625 16.25878906 20.625 16.265625 C19.55765625 16.26820312 18.4903125 16.27078125 17.390625 16.2734375 C15.71226563 16.26183594 15.71226563 16.26183594 14 16.25 C12.88109375 16.25773437 11.7621875 16.26546875 10.609375 16.2734375 C9.54203125 16.27085938 8.4746875 16.26828125 7.375 16.265625 C6.39273437 16.26336914 5.41046875 16.26111328 4.3984375 16.25878906 C2 16 2 16 0 14 C-0.1953125 10.7421875 -0.1953125 10.7421875 -0.125 6.875 C-0.10695313 5.59367187 -0.08890625 4.31234375 -0.0703125 2.9921875 C-0.04710937 2.00476562 -0.02390625 1.01734375 0 0 Z " fill="#000000" transform="translate(10,32)"/>
<path d="M0 0 C1.06734375 -0.00257812 2.1346875 -0.00515625 3.234375 -0.0078125 C4.91273437 0.00378906 4.91273437 0.00378906 6.625 0.015625 C7.74390625 0.00789062 8.8628125 0.00015625 10.015625 -0.0078125 C11.08296875 -0.00523438 12.1503125 -0.00265625 13.25 0 C14.23226563 0.00225586 15.21453125 0.00451172 16.2265625 0.00683594 C18.625 0.265625 18.625 0.265625 20.625 2.265625 C20.8203125 5.3046875 20.8203125 5.3046875 20.75 8.890625 C20.73195313 10.07914063 20.71390625 11.26765625 20.6953125 12.4921875 C20.67210938 13.40742188 20.64890625 14.32265625 20.625 15.265625 C19.965 14.935625 19.305 14.605625 18.625 14.265625 C17.98341401 11.69928106 17.60300854 9.12739294 17.1875 6.515625 C17.001875 5.773125 16.81625 5.030625 16.625 4.265625 C13.47989907 2.69307454 10.13734555 3.03989832 6.6875 3.015625 C5.95853516 2.995 5.22957031 2.974375 4.47851562 2.953125 C0.35465276 2.90640639 0.35465276 2.90640639 -3.34375 4.5234375 C-4.56036529 6.57877999 -4.80159332 8.01445009 -4.9375 10.390625 C-5.1540625 12.30875 -5.1540625 12.30875 -5.375 14.265625 C-6.365 14.760625 -6.365 14.760625 -7.375 15.265625 C-7.42886629 13.14089924 -7.46773071 11.01578848 -7.5 8.890625 C-7.52320313 7.70726562 -7.54640625 6.52390625 -7.5703125 5.3046875 C-7.22438379 -0.07796316 -4.73242245 0.01086842 0 0 Z " fill="#000000" transform="translate(17.375,1.734375)"/>
<path d="M0 0 C3.44428265 1.44781793 5.36130962 3.27694609 7.75 6.125 C8.36359375 6.84945313 8.9771875 7.57390625 9.609375 8.3203125 C10.29773438 9.15175781 10.29773438 9.15175781 11 10 C8.36113346 14.2026393 5.63559661 17.56638098 2 21 C1.01 20.67 0.02 20.34 -1 20 C1.25111712 16.58451196 3.54373427 13.27502097 6 10 C3.69 7.36 1.38 4.72 -1 2 C-0.67 1.34 -0.34 0.68 0 0 Z " fill="#000000" transform="translate(32,14)"/>
<path d="M0 0 C0.99 0.33 1.98 0.66 3 1 C0.74888288 4.41548804 -1.54373427 7.72497903 -4 11 C-1.69 13.64 0.62 16.28 3 19 C2.67 19.66 2.34 20.32 2 21 C-1.44428265 19.55218207 -3.36130962 17.72305391 -5.75 14.875 C-6.36359375 14.15054687 -6.9771875 13.42609375 -7.609375 12.6796875 C-8.06828125 12.12539063 -8.5271875 11.57109375 -9 11 C-6.36113346 6.7973607 -3.63559661 3.43361902 0 0 Z " fill="#000000" transform="translate(14,14)"/>
<path d="M0 0 C6.6 0 13.2 0 20 0 C20 1.65 20 3.3 20 5 C19.34 4.67 18.68 4.34 18 4 C18 3.34 18 2.68 18 2 C12.72 2 7.44 2 2 2 C1.67 2.99 1.34 3.98 1 5 C0.67 5 0.34 5 0 5 C0 3.35 0 1.7 0 0 Z " fill="#000000" transform="translate(14,7)"/>
</svg>
